<?xml version="1.0" standalone="no"?>
<!DOCTYPE svg PUBLIC "-//W3C//DTD SVG 20010904//EN"
 "http://www.w3.org/TR/2001/REC-SVG-20010904/DTD/svg10.dtd">
<svg version="1.0" xmlns="http://www.w3.org/2000/svg"
 width="1080.000000pt" height="1080.000000pt" viewBox="0 0 1080.000000 1080.000000"
 preserveAspectRatio="xMidYMid meet">
<metadata>
Created by potrace 1.14, written by Peter Selinger 2001-2017
</metadata>
<g transform="translate(0.000000,1080.000000) scale(0.100000,-0.100000)"
fill="#000000" stroke="none">
<path d="M5055 10790 c-755 -55 -1430 -240 -2095 -575 -521 -263 -953 -577
-1376 -999 -433 -433 -744 -865 -1013 -1406 -311 -625 -478 -1215 -553 -1955
-16 -157 -16 -753 0 -910 48 -476 127 -851 262 -1255 89 -267 160 -437 291
-700 269 -541 580 -973 1013 -1406 433 -433 865 -744 1406 -1013 625 -311
1215 -478 1955 -553 68 -7 264 -12 455 -12 325 0 428 6 700 40 425 53 947 192
1355 360 193 80 541 254 715 359 397 239 712 486 1046 819 433 433 744 865
1013 1406 311 625 478 1215 553 1955 16 157 16 753 0 910 -60 589 -186 1109
-388 1600 -130 315 -340 704 -532 985 -319 468 -738 910 -1192 1257 -348 266
-804 527 -1215 697 -486 200 -1017 330 -1585 386 -142 14 -667 21 -815 10z
m2463 -2715 c245 -51 456 -243 540 -492 l27 -78 0 -2105 0 -2105 -27 -80 c-39
-113 -91 -198 -178 -286 -86 -87 -184 -149 -297 -187 l-78 -27 -2110 0 -2110
0 -73 27 c-115 42 -209 103 -297 192 -93 95 -153 201 -185 330 -20 78 -20 117
-20 2140 0 2259 -4 2112 60 2252 94 208 292 372 504 419 95 21 4145 21 4244 0z"/>
<path d="M3356 7729 c-109 -26 -210 -110 -263 -218 l-28 -56 -3 -1393 -2
-1392 312 267 c172 148 336 284 363 304 72 52 181 105 282 136 77 23 105 27
228 27 226 1 284 -20 644 -238 283 -171 337 -199 417 -220 136 -34 250 -28
385 23 125 47 144 66 553 562 212 257 409 487 438 513 58 50 153 103 238 132
82 28 262 25 350 -5 131 -45 234 -126 400 -316 29 -33 57 -64 62 -70 5 -6 7
337 6 825 l-3 835 -31 66 c-44 93 -93 142 -182 187 l-76 37 -2025 2 c-1200 0
-2042 -3 -2065 -8z m1074 -713 c175 -62 304 -195 354 -366 24 -79 22 -218 -3
-301 -50 -160 -188 -299 -351 -350 -90 -29 -231 -29 -320 0 -259 82 -415 354
-359 623 39 187 204 354 395 403 72 18 219 13 284 -9z"/>
</g>
</svg>
